<?xml version="1.0" encoding="iso-8859-1"?>
<!-- Generator: Adobe Illustrator 19.0.0, SVG Export Plug-In . SVG Version: 6.00 Build 0)  -->
<svg version="1.1" id="Layer_1" xmlns="http://www.w3.org/2000/svg" xmlns:xlink="http://www.w3.org/1999/xlink" x="0px" y="0px"
	 viewBox="0 0 512 512" style="enable-background:new 0 0 512 512;" xml:space="preserve">
<g>
	<g>
		<rect x="129.438" y="207.101" width="69.034" height="34.517"/>
	</g>
</g>
<g>
	<g>
		<rect x="313.528" y="207.101" width="69.034" height="34.517"/>
	</g>
</g>
<g>
	<g>
		<path d="M25.888,0v34.517h28.764V512h34.517v-18.524c4.339-2.591,17.379-8.564,51.274-13.895
			c32.187-5.063,73.226-7.85,115.558-7.85s83.371,2.788,115.557,7.85c33.894,5.332,46.935,11.304,51.275,13.895V512h34.517V34.517
			h28.764V0H25.888z M89.169,34.517H238.74v345.169H89.169V34.517z M422.831,455.95c-10.541-3.618-22.299-6.235-33.48-8.331
			c-35.786-6.71-83.144-10.406-133.351-10.406s-97.565,3.696-133.351,10.406c-11.18,2.096-22.939,4.714-33.48,8.331v-41.748h333.663
			V455.95z M422.831,379.685H273.258V34.517h149.573V379.685z"/>
	</g>
</g>
<g>
</g>
<g>
</g>
<g>
</g>
<g>
</g>
<g>
</g>
<g>
</g>
<g>
</g>
<g>
</g>
<g>
</g>
<g>
</g>
<g>
</g>
<g>
</g>
<g>
</g>
<g>
</g>
<g>
</g>
</svg>
